<?xml version="1.0" encoding="us-ascii" standalone="no"?><svg xmlns="http://www.w3.org/2000/svg" xmlns:xlink="http://www.w3.org/1999/xlink" contentStyleType="text/css" height="737px" preserveAspectRatio="none" style="width:760px;height:737px;background:#FFFFFF;" version="1.1" viewBox="0 0 760 737" width="760px" zoomAndPan="magnify"><defs/><g><text fill="#000000" font-family="sans-serif" font-size="14" font-weight="bold" lengthAdjust="spacing" textLength="445" x="156.1667" y="33.5352">Projektstruktur: Instagram Like Vorhersage (ADA) - Mindmap</text><rect fill="#F1F1F1" height="36.4883" rx="12.5" ry="12.5" style="stroke:#181818;stroke-width:1.5;" width="207.3333" x="10" y="198.709"/><text fill="#000000" font-family="sans-serif" font-size="14" lengthAdjust="spacing" textLength="168" x="20" y="222.2441">ada-instagram-analyse/</text><path d="M193,212.3639 L193,214.6973 L202.3333,214.6973 L202.3333,213.5306 L196.5,213.5306 L196.5,212.3639 L193,212.3639 M193,215.8639 L193,221.1139 C193,221.4406 193.2567,221.6973 193.5833,221.6973 L201.75,221.6973 C202.0767,221.6973 202.3333,221.4406 202.3333,221.1139 L202.3333,215.8639 L193,215.8639 " fill="#000000" style="stroke:;stroke-width:0.0;stroke-dasharray:;"/><text fill="#000000" font-family="sans-serif" font-size="14" lengthAdjust="spacing" textLength="4" x="203.3333" y="222.2441">&#160;</text><rect fill="#F1F1F1" height="36.4883" rx="12.5" ry="12.5" style="stroke:#181818;stroke-width:1.5;" width="119.3333" x="267.3333" y="142.2207"/><text fill="#000000" font-family="sans-serif" font-size="14" lengthAdjust="spacing" textLength="80" x="277.3333" y="165.7559">notebooks/</text><path d="M362.3333,155.8757 L362.3333,158.209 L371.6667,158.209 L371.6667,157.0423 L365.8333,157.0423 L365.8333,155.8757 L362.3333,155.8757 M362.3333,159.3757 L362.3333,164.6257 C362.3333,164.9523 362.59,165.209 362.9167,165.209 L371.0833,165.209 C371.41,165.209 371.6667,164.9523 371.6667,164.6257 L371.6667,159.3757 L362.3333,159.3757 " fill="#000000" style="stroke:;stroke-width:0.0;stroke-dasharray:;"/><text fill="#000000" font-family="sans-serif" font-size="14" lengthAdjust="spacing" textLength="4" x="372.6667" y="165.7559">&#160;</text><rect fill="#F1F1F1" height="36.4883" rx="12.5" ry="12.5" style="stroke:#181818;stroke-width:1.5;" width="281.3333" x="436.6667" y="57.4883"/><text fill="#000000" font-family="sans-serif" font-size="14" lengthAdjust="spacing" textLength="242" x="446.6667" y="81.0234">01_Daten_Laden_Exploration.ipynb</text><path d="M693.6667,71.1432 L693.6667,80.4766 L701.8333,80.4766 L701.8333,75.8099 L697.1667,75.8099 L697.1667,71.1432 L693.6667,71.1432 M698.3333,71.1432 L698.3333,74.6432 L701.8333,74.6432 L698.3333,71.1432 " fill="#000000" style="stroke:;stroke-width:0.0;stroke-dasharray:;"/><text fill="#000000" font-family="sans-serif" font-size="14" lengthAdjust="spacing" textLength="4" x="704" y="81.0234">&#160;</text><path d="M386.6667,160.4648 L396.6667,160.4648 C411.6667,160.4648 411.6667,75.7324 426.6667,75.7324 L436.6667,75.7324 " fill="none" style="stroke:#181818;stroke-width:1.0;"/><rect fill="#F1F1F1" height="36.4883" rx="12.5" ry="12.5" style="stroke:#181818;stroke-width:1.5;" width="243.3333" x="436.6667" y="113.9766"/><text fill="#000000" font-family="sans-serif" font-size="14" lengthAdjust="spacing" textLength="204" x="446.6667" y="137.5117">02_Merkmal_Extraktion.ipynb</text><path d="M655.6667,127.6315 L655.6667,136.9648 L663.8333,136.9648 L663.8333,132.2982 L659.1667,132.2982 L659.1667,127.6315 L655.6667,127.6315 M660.3333,127.6315 L660.3333,131.1315 L663.8333,131.1315 L660.3333,127.6315 " fill="#000000" style="stroke:;stroke-width:0.0;stroke-dasharray:;"/><text fill="#000000" font-family="sans-serif" font-size="14" lengthAdjust="spacing" textLength="4" x="666" y="137.5117">&#160;</text><path d="M386.6667,160.4648 L396.6667,160.4648 C411.6667,160.4648 411.6667,132.2207 426.6667,132.2207 L436.6667,132.2207 " fill="none" style="stroke:#181818;stroke-width:1.0;"/><rect fill="#F1F1F1" height="36.4883" rx="12.5" ry="12.5" style="stroke:#181818;stroke-width:1.5;" width="277.3333" x="436.6667" y="170.4648"/><text fill="#000000" font-family="sans-serif" font-size="14" lengthAdjust="spacing" textLength="238" x="446.6667" y="194">03_Modellierung_Bewertung.ipynb</text><path d="M689.6667,184.1198 L689.6667,193.4531 L697.8333,193.4531 L697.8333,188.7865 L693.1667,188.7865 L693.1667,184.1198 L689.6667,184.1198 M694.3333,184.1198 L694.3333,187.6198 L697.8333,187.6198 L694.3333,184.1198 " fill="#000000" style="stroke:;stroke-width:0.0;stroke-dasharray:;"/><text fill="#000000" font-family="sans-serif" font-size="14" lengthAdjust="spacing" textLength="4" x="700" y="194">&#160;</text><path d="M386.6667,160.4648 L396.6667,160.4648 C411.6667,160.4648 411.6667,188.709 426.6667,188.709 L436.6667,188.709 " fill="none" style="stroke:#181818;stroke-width:1.0;"/><rect fill="#F1F1F1" height="36.4883" rx="12.5" ry="12.5" style="stroke:#181818;stroke-width:1.5;" width="194" x="436.6667" y="226.9531"/><text fill="#000000" font-family="sans-serif" font-size="14" lengthAdjust="spacing" textLength="170" x="446.6667" y="250.4883">... (weitere Notebooks) ...</text><path d="M386.6667,160.4648 L396.6667,160.4648 C411.6667,160.4648 411.6667,245.1973 426.6667,245.1973 L436.6667,245.1973 " fill="none" style="stroke:#181818;stroke-width:1.0;"/><path d="M217.3333,216.9531 L227.3333,216.9531 C242.3333,216.9531 242.3333,160.4648 257.3333,160.4648 L267.3333,160.4648 " fill="none" style="stroke:#181818;stroke-width:1.0;"/><rect fill="#F1F1F1" height="36.4883" rx="12.5" ry="12.5" style="stroke:#181818;stroke-width:1.5;" width="121.3333" x="267.3333" y="311.6855"/><text fill="#000000" font-family="sans-serif" font-size="14" lengthAdjust="spacing" textLength="82" x="277.3333" y="335.2207">ergebnisse/</text><path d="M364.3333,325.3405 L364.3333,327.6738 L373.6667,327.6738 L373.6667,326.5072 L367.8333,326.5072 L367.8333,325.3405 L364.3333,325.3405 M364.3333,328.8405 L364.3333,334.0905 C364.3333,334.4172 364.59,334.6738 364.9167,334.6738 L373.0833,334.6738 C373.41,334.6738 373.6667,334.4172 373.6667,334.0905 L373.6667,328.8405 L364.3333,328.8405 " fill="#000000" style="stroke:;stroke-width:0.0;stroke-dasharray:;"/><text fill="#000000" font-family="sans-serif" font-size="14" lengthAdjust="spacing" textLength="4" x="374.6667" y="335.2207">&#160;</text><rect fill="#F1F1F1" height="36.4883" rx="12.5" ry="12.5" style="stroke:#181818;stroke-width:1.5;" width="103.3333" x="438.6667" y="283.4414"/><text fill="#000000" font-family="sans-serif" font-size="14" lengthAdjust="spacing" textLength="64" x="448.6667" y="306.9766">grafiken/</text><path d="M517.6667,297.0964 L517.6667,299.4297 L527,299.4297 L527,298.263 L521.1667,298.263 L521.1667,297.0964 L517.6667,297.0964 M517.6667,300.5964 L517.6667,305.8464 C517.6667,306.173 517.9233,306.4297 518.25,306.4297 L526.4167,306.4297 C526.7433,306.4297 527,306.173 527,305.8464 L527,300.5964 L517.6667,300.5964 " fill="#000000" style="stroke:;stroke-width:0.0;stroke-dasharray:;"/><text fill="#000000" font-family="sans-serif" font-size="14" lengthAdjust="spacing" textLength="4" x="528" y="306.9766">&#160;</text><rect fill="#F1F1F1" height="36.4883" rx="12.5" ry="12.5" style="stroke:#181818;stroke-width:1.5;" width="156.3333" x="592" y="283.4414"/><text fill="#000000" font-family="sans-serif" font-size="14" lengthAdjust="spacing" textLength="117" x="602" y="306.9766">farb_analyse.png</text><path d="M724,297.0964 L724,306.4297 L732.1667,306.4297 L732.1667,301.763 L727.5,301.763 L727.5,297.0964 L724,297.0964 M728.6667,297.0964 L728.6667,300.5964 L732.1667,300.5964 L728.6667,297.0964 " fill="#000000" style="stroke:;stroke-width:0.0;stroke-dasharray:;"/><text fill="#000000" font-family="sans-serif" font-size="14" lengthAdjust="spacing" textLength="4" x="734.3333" y="306.9766">&#160;</text><path d="M542,301.6855 L552,301.6855 C567,301.6855 567,301.6855 582,301.6855 L592,301.6855 " fill="none" style="stroke:#181818;stroke-width:1.0;"/><path d="M388.6667,329.9297 L398.6667,329.9297 C413.6667,329.9297 413.6667,301.6855 428.6667,301.6855 L438.6667,301.6855 " fill="none" style="stroke:#181818;stroke-width:1.0;"/><rect fill="#F1F1F1" height="36.4883" rx="12.5" ry="12.5" style="stroke:#181818;stroke-width:1.5;" width="101.3333" x="438.6667" y="339.9297"/><text fill="#000000" font-family="sans-serif" font-size="14" lengthAdjust="spacing" textLength="62" x="448.6667" y="363.4648">modelle/</text><path d="M515.6667,353.5846 L515.6667,355.918 L525,355.918 L525,354.7513 L519.1667,354.7513 L519.1667,353.5846 L515.6667,353.5846 M515.6667,357.0846 L515.6667,362.3346 C515.6667,362.6613 515.9233,362.918 516.25,362.918 L524.4167,362.918 C524.7433,362.918 525,362.6613 525,362.3346 L525,357.0846 L515.6667,357.0846 " fill="#000000" style="stroke:;stroke-width:0.0;stroke-dasharray:;"/><text fill="#000000" font-family="sans-serif" font-size="14" lengthAdjust="spacing" textLength="4" x="526" y="363.4648">&#160;</text><rect fill="#F1F1F1" height="36.4883" rx="12.5" ry="12.5" style="stroke:#181818;stroke-width:1.5;" width="142.3333" x="590" y="339.9297"/><text fill="#000000" font-family="sans-serif" font-size="14" lengthAdjust="spacing" textLength="103" x="600" y="363.4648">like_modell.pkl</text><path d="M708,353.5846 L708,362.918 L716.1667,362.918 L716.1667,358.2513 L711.5,358.2513 L711.5,353.5846 L708,353.5846 M712.6667,353.5846 L712.6667,357.0846 L716.1667,357.0846 L712.6667,353.5846 " fill="#000000" style="stroke:;stroke-width:0.0;stroke-dasharray:;"/><text fill="#000000" font-family="sans-serif" font-size="14" lengthAdjust="spacing" textLength="4" x="718.3333" y="363.4648">&#160;</text><path d="M540,358.1738 L550,358.1738 C565,358.1738 565,358.1738 580,358.1738 L590,358.1738 " fill="none" style="stroke:#181818;stroke-width:1.0;"/><path d="M388.6667,329.9297 L398.6667,329.9297 C413.6667,329.9297 413.6667,358.1738 428.6667,358.1738 L438.6667,358.1738 " fill="none" style="stroke:#181818;stroke-width:1.0;"/><path d="M217.3333,216.9531 L227.3333,216.9531 C242.3333,216.9531 242.3333,329.9297 257.3333,329.9297 L267.3333,329.9297 " fill="none" style="stroke:#181818;stroke-width:1.0;"/><rect fill="#F1F1F1" height="36.4883" rx="12.5" ry="12.5" style="stroke:#181818;stroke-width:1.5;" width="85.3333" x="10" y="424.6621"/><text fill="#000000" font-family="sans-serif" font-size="14" lengthAdjust="spacing" textLength="46" x="20" y="448.1973">daten/</text><path d="M71,438.3171 L71,440.6504 L80.3333,440.6504 L80.3333,439.4837 L74.5,439.4837 L74.5,438.3171 L71,438.3171 M71,441.8171 L71,447.0671 C71,447.3937 71.2567,447.6504 71.5833,447.6504 L79.75,447.6504 C80.0767,447.6504 80.3333,447.3937 80.3333,447.0671 L80.3333,441.8171 L71,441.8171 " fill="#000000" style="stroke:;stroke-width:0.0;stroke-dasharray:;"/><text fill="#000000" font-family="sans-serif" font-size="14" lengthAdjust="spacing" textLength="4" x="81.3333" y="448.1973">&#160;</text><rect fill="#F1F1F1" height="36.4883" rx="12.5" ry="12.5" style="stroke:#181818;stroke-width:1.5;" width="109.3333" x="145.3333" y="396.418"/><text fill="#000000" font-family="sans-serif" font-size="14" lengthAdjust="spacing" textLength="70" x="155.3333" y="419.9531">rohdaten/</text><path d="M230.3333,410.0729 L230.3333,412.4063 L239.6667,412.4063 L239.6667,411.2396 L233.8333,411.2396 L233.8333,410.0729 L230.3333,410.0729 M230.3333,413.5729 L230.3333,418.8229 C230.3333,419.1496 230.59,419.4063 230.9167,419.4063 L239.0833,419.4063 C239.41,419.4063 239.6667,419.1496 239.6667,418.8229 L239.6667,413.5729 L230.3333,413.5729 " fill="#000000" style="stroke:;stroke-width:0.0;stroke-dasharray:;"/><text fill="#000000" font-family="sans-serif" font-size="14" lengthAdjust="spacing" textLength="4" x="240.6667" y="419.9531">&#160;</text><rect fill="#F1F1F1" height="36.4883" rx="12.5" ry="12.5" style="stroke:#181818;stroke-width:1.5;" width="218.3333" x="304.6667" y="396.418"/><text fill="#000000" font-family="sans-serif" font-size="14" lengthAdjust="spacing" textLength="179" x="314.6667" y="419.9531">instagram-posts-dataset/</text><path d="M498.6667,410.0729 L498.6667,412.4063 L508,412.4063 L508,411.2396 L502.1667,411.2396 L502.1667,410.0729 L498.6667,410.0729 M498.6667,413.5729 L498.6667,418.8229 C498.6667,419.1496 498.9233,419.4063 499.25,419.4063 L507.4167,419.4063 C507.7433,419.4063 508,419.1496 508,418.8229 L508,413.5729 L498.6667,413.5729 " fill="#000000" style="stroke:;stroke-width:0.0;stroke-dasharray:;"/><text fill="#000000" font-family="sans-serif" font-size="14" lengthAdjust="spacing" textLength="4" x="509" y="419.9531">&#160;</text><path d="M254.6667,414.6621 L264.6667,414.6621 C279.6667,414.6621 279.6667,414.6621 294.6667,414.6621 L304.6667,414.6621 " fill="none" style="stroke:#181818;stroke-width:1.0;"/><path d="M95.3333,442.9063 L105.3333,442.9063 C120.3333,442.9063 120.3333,414.6621 135.3333,414.6621 L145.3333,414.6621 " fill="none" style="stroke:#181818;stroke-width:1.0;"/><rect fill="#F1F1F1" height="36.4883" rx="12.5" ry="12.5" style="stroke:#181818;stroke-width:1.5;" width="174.3333" x="145.3333" y="452.9063"/><text fill="#000000" font-family="sans-serif" font-size="14" lengthAdjust="spacing" textLength="135" x="155.3333" y="476.4414">verarbeitete_daten/</text><path d="M295.3333,466.5612 L295.3333,468.8945 L304.6667,468.8945 L304.6667,467.7279 L298.8333,467.7279 L298.8333,466.5612 L295.3333,466.5612 M295.3333,470.0612 L295.3333,475.3112 C295.3333,475.6379 295.59,475.8945 295.9167,475.8945 L304.0833,475.8945 C304.41,475.8945 304.6667,475.6379 304.6667,475.3112 L304.6667,470.0612 L295.3333,470.0612 " fill="#000000" style="stroke:;stroke-width:0.0;stroke-dasharray:;"/><text fill="#000000" font-family="sans-serif" font-size="14" lengthAdjust="spacing" textLength="4" x="305.6667" y="476.4414">&#160;</text><rect fill="#F1F1F1" height="36.4883" rx="12.5" ry="12.5" style="stroke:#181818;stroke-width:1.5;" width="203.3333" x="369.6667" y="452.9063"/><text fill="#000000" font-family="sans-serif" font-size="14" lengthAdjust="spacing" textLength="164" x="379.6667" y="476.4414">bild_merkmale_likes.csv</text><path d="M548.6667,466.5612 L548.6667,475.8945 L556.8333,475.8945 L556.8333,471.2279 L552.1667,471.2279 L552.1667,466.5612 L548.6667,466.5612 M553.3333,466.5612 L553.3333,470.0612 L556.8333,470.0612 L553.3333,466.5612 " fill="#000000" style="stroke:;stroke-width:0.0;stroke-dasharray:;"/><text fill="#000000" font-family="sans-serif" font-size="14" lengthAdjust="spacing" textLength="4" x="559" y="476.4414">&#160;</text><path d="M319.6667,471.1504 L329.6667,471.1504 C344.6667,471.1504 344.6667,471.1504 359.6667,471.1504 L369.6667,471.1504 " fill="none" style="stroke:#181818;stroke-width:1.0;"/><path d="M95.3333,442.9063 L105.3333,442.9063 C120.3333,442.9063 120.3333,471.1504 135.3333,471.1504 L145.3333,471.1504 " fill="none" style="stroke:#181818;stroke-width:1.0;"/><rect fill="#F1F1F1" height="36.4883" rx="12.5" ry="12.5" style="stroke:#181818;stroke-width:1.5;" width="68.3333" x="10" y="509.3945"/><text fill="#000000" font-family="sans-serif" font-size="14" lengthAdjust="spacing" textLength="29" x="20" y="532.9297">.git/</text><path d="M54,523.0495 L54,525.3828 L63.3333,525.3828 L63.3333,524.2161 L57.5,524.2161 L57.5,523.0495 L54,523.0495 M54,526.5495 L54,531.7995 C54,532.1261 54.2567,532.3828 54.5833,532.3828 L62.75,532.3828 C63.0767,532.3828 63.3333,532.1261 63.3333,531.7995 L63.3333,526.5495 L54,526.5495 " fill="#000000" style="stroke:;stroke-width:0.0;stroke-dasharray:;"/><text fill="#000000" font-family="sans-serif" font-size="14" lengthAdjust="spacing" textLength="4" x="64.3333" y="532.9297">&#160;</text><rect fill="#F1F1F1" height="36.4883" rx="12.5" ry="12.5" style="stroke:#181818;stroke-width:1.5;" width="106.3333" x="10" y="565.8828"/><text fill="#000000" font-family="sans-serif" font-size="14" lengthAdjust="spacing" textLength="67" x="20" y="589.418">.gitignore</text><path d="M92,579.5378 L92,588.8711 L100.1667,588.8711 L100.1667,584.2044 L95.5,584.2044 L95.5,579.5378 L92,579.5378 M96.6667,579.5378 L96.6667,583.0378 L100.1667,583.0378 L96.6667,579.5378 " fill="#000000" style="stroke:;stroke-width:0.0;stroke-dasharray:;"/><text fill="#000000" font-family="sans-serif" font-size="14" lengthAdjust="spacing" textLength="4" x="102.3333" y="589.418">&#160;</text><rect fill="#F1F1F1" height="36.4883" rx="12.5" ry="12.5" style="stroke:#181818;stroke-width:1.5;" width="122.3333" x="10" y="622.3711"/><text fill="#000000" font-family="sans-serif" font-size="14" lengthAdjust="spacing" textLength="83" x="20" y="645.9063">README.md</text><path d="M108,636.026 L108,645.3594 L116.1667,645.3594 L116.1667,640.6927 L111.5,640.6927 L111.5,636.026 L108,636.026 M112.6667,636.026 L112.6667,639.526 L116.1667,639.526 L112.6667,636.026 " fill="#000000" style="stroke:;stroke-width:0.0;stroke-dasharray:;"/><text fill="#000000" font-family="sans-serif" font-size="14" lengthAdjust="spacing" textLength="4" x="118.3333" y="645.9063">&#160;</text><rect fill="#F1F1F1" height="36.4883" rx="12.5" ry="12.5" style="stroke:#181818;stroke-width:1.5;" width="154.3333" x="10" y="678.8594"/><text fill="#000000" font-family="sans-serif" font-size="14" lengthAdjust="spacing" textLength="115" x="20" y="702.3945">requirements.txt</text><path d="M140,692.5143 L140,701.8477 L148.1667,701.8477 L148.1667,697.181 L143.5,697.181 L143.5,692.5143 L140,692.5143 M144.6667,692.5143 L144.6667,696.0143 L148.1667,696.0143 L144.6667,692.5143 " fill="#000000" style="stroke:;stroke-width:0.0;stroke-dasharray:;"/><text fill="#000000" font-family="sans-serif" font-size="14" lengthAdjust="spacing" textLength="4" x="150.3333" y="702.3945">&#160;</text><!--SRC=[ZLJRRjf047ttLynJ1KYuX2HLPI6K2wGgnIbA2Q_M6W_ErkjTTtRj97_VMGWXK9hM3vQrUywPENFnXNM2N2brLeegSD8fX1cPdrWuwwWkN4qHVDMCoacKC9K5miBG0v8LEKBhSdJPXYx4Bm911qGckd9Bw0ejrBF5Zp3ui38gGnh2O436k5kJuN0OyDFfW3OEKsCAkuzRCcQ30qPre7UIZ8H3dKn5nk_nKwKC2IUD3cNrh5DFbWezLM63giy1rhn-4YCLfL3CSIIA_w2S9Z57LaeYrJfFhl0HoV7N-xGm3A7rYD8X8TnkNRNNvs-WtZDIZgcMze_YeAtLjZnUa-kuuhBhVTZRi1rO2KgJbrg7bSuFypjzqIhNdl0zASMnaWqkh0frJCctEVEDsDVX8_6QDv1vE8BPgzPkJ2fZdUrw0Olk26EJFpH8RDINrs7oB_LKgYmfDtt7nDkouT8sHmrnvtBf3gTFhsI-DRG6o5mRRknEuG1pDxuSnUEmpDv0ChDylIVyLKl24hMpeNjoVrCABf3tQRjJCoMqku-dthxboOMJiD_hduMdhVb33JUOmiavz7lHMI_gdSFrU0x-kXsqliocJH-igMc9a4bUQ9dMVlRRmKGq0kvgxMI94NolK4z6txO7CDQD9ADzdi5a4Uy0dywwLzB13oJE1HPnCCALu75b1Y-hr7a4z_ERxkTWAdHUynyY0jJ1jM5TUevWDFuD]--></g></svg>